<svg xmlns="http://www.w3.org/2000/svg" viewBox="0 0 71.639374 79.523872" height="79.52" width="71.64"><defs><clipPath id="0"><path d="m0 63.62h57.31v-63.62h-57.31v63.62"/></clipPath></defs><g transform="matrix(1.25 0 0-1.25 0 79.52)"><g clip-path="url(#0)"><path d="m0 0v-14.543c0-16.259-7.182-25.895-13.211-31.12-6.462-5.604-12.938-7.379-13.659-7.562l-1.784-.455-7.197 32.525 7.197 31.09 28.654-9.939" fill="#78c5e2" transform="translate(57.31 53.68)"/><path d="m0 0v-63.62l-1.786.455c-.718.183-7.196 1.958-13.656 7.561-6.03 5.226-13.215 14.862-13.215 31.12v14.543l28.657 9.939" fill="#6db5cb" transform="translate(28.657 63.62)"/><path d="m0 0l-5.215-26.356 5.214-26.362.497.132c.236.06 5.867 1.535 11.529 6.446 5.211 4.513 11.414 12.89 11.414 27.18v10.829l-23.439 8.131" fill="#dfa200" transform="translate(28.657 58.1)"/><g fill="#ffc61a"><path d="m0 0v-10.829c0-14.29 6.209-22.667 11.42-27.18 5.646-4.902 11.292-6.388 11.526-6.446l.496-.132.0001 52.718-23.443-8.131" transform="translate(5.214 49.966)"/><path d="m 0,0 0,-8.357 -21.703,-1.739 1.736,17.02 L 0,0 Z" transform="translate(48.624 47.49)"/></g><path d="m0 0v-17.02l-19.969 1.739v8.356l19.969 6.925" fill="#fde087" transform="translate(28.657 54.42)"/><path d="m0 0h19.967c0-12.976-5.555-20.513-10.217-24.555-4.248-3.682-8.502-5.205-9.75-5.599v30.15" fill="#ebb529" transform="translate(28.657 39.14)"/><path d="m0 0v-30.15c-1.248.394-5.517 1.925-9.746 5.595-4.664 4.04-10.223 11.58-10.223 24.559h19.969" fill="#edd07e" transform="translate(28.657 39.14)"/></g><g transform="matrix(.99999.00017.00017-1 3.049 31.26)"><path d="m9.406 0h-4v-7.729q0-1.408.06-2.576-.369.449-.919.939l-1.658 1.368-2.047-2.516 5.01-4.084h3.555v14.598"/><path d="m20.997-7.279q0 3.874-1.298 5.682-1.298 1.797-3.974 1.797-2.616 0-3.944-1.877-1.328-1.887-1.328-5.602 0-3.894 1.298-5.712 1.298-1.817 3.974-1.817 2.606 0 3.934 1.897 1.338 1.887 1.338 5.632m-6.62 0q0 2.476.31 3.405.31.929 1.038.929.739 0 1.038-.959.31-.959.31-3.375 0-2.426-.31-3.395-.31-.979-1.038-.979-.729 0-1.038.939-.31.939-.31 3.435"/><path d="m32.367-7.279q0 3.874-1.298 5.682-1.298 1.797-3.974 1.797-2.616 0-3.944-1.877-1.328-1.887-1.328-5.602 0-3.894 1.298-5.712 1.298-1.817 3.974-1.817 2.606 0 3.934 1.897 1.338 1.887 1.338 5.632m-6.62 0q0 2.476.31 3.405.31.929 1.038.929.739 0 1.038-.959.31-.959.31-3.375 0-2.426-.31-3.395-.31-.979-1.038-.979-.729 0-1.038.939-.31.939-.31 3.435"/><path d="m35.849-10.205q0 1.148.19 1.658.19.509.569.509.379 0 .559-.499.19-.499.19-1.668 0-1.148-.19-1.658-.18-.509-.559-.509-.389 0-.579.519-.18.519-.18 1.648m4.523-.04q0 2.197-.989 3.405-.989 1.198-2.816 1.198-1.717 0-2.726-1.238-.999-1.248-.999-3.365 0-2.197.979-3.375.979-1.188 2.746-1.188 1.747 0 2.776 1.228 1.028 1.228 1.028 3.335m7.279-4.354l-8.098 14.598h-2.966l8.098-14.598h2.966m-.699 10.205q0 1.148.19 1.658.19.509.569.509.429 0 .589-.579.17-.589.17-1.588 0-.999-.17-1.578-.16-.589-.589-.589-.389 0-.579.519-.18.519-.18 1.648m4.523-.04q0 2.187-.999 3.395-.989 1.198-2.806 1.198-1.717 0-2.726-1.238-.999-1.248-.999-3.355 0-2.197.979-3.375.979-1.188 2.746-1.188 1.747 0 2.776 1.228 1.028 1.228 1.028 3.335"/></g><g transform="matrix(1 .00123.00123-1 4.552 23.08)"><path d="m4.03-4.755v1.039q-.404-.181-.789-.273-.385-.092-.727-.092-.454 0-.671.125-.217.125-.217.388 0 .197.145.309.148.109.533.187l.539.109q.819.164 1.164.5.345.335.345.954 0 .812-.483 1.21-.48.395-1.47.395-.467 0-.937-.089-.47-.089-.94-.263v-1.069q.47.25.908.378.441.125.848.125.414 0 .635-.138.22-.138.22-.395 0-.23-.151-.355-.148-.125-.595-.224l-.49-.109q-.737-.158-1.079-.503-.339-.345-.339-.931 0-.733.473-1.128.473-.395 1.361-.395.404 0 .832.062.427.059.885.181"/><path d="m7.847-.894h-1.979l-.312.894h-1.273l1.818-4.909h1.509l1.818 4.909h-1.273l-.309-.894m-1.664-.911h1.345l-.671-1.953-.674 1.953z"/><path d="m8.895-4.909h4.525v.957h-1.628v3.952h-1.266v-3.952h-1.631v-.957"/><path d="m13.528-4.909h1.266v4.909h-1.266v-4.909"/><path d="m19.02-4.755v1.039q-.404-.181-.789-.273-.385-.092-.727-.092-.454 0-.671.125-.217.125-.217.388 0 .197.145.309.148.109.533.187l.539.109q.819.164 1.164.5.345.335.345.954 0 .812-.483 1.21-.48.395-1.47.395-.467 0-.937-.089-.47-.089-.94-.263v-1.069q.47.25.908.378.441.125.848.125.414 0 .635-.138.22-.138.22-.395 0-.23-.151-.355-.148-.125-.595-.224l-.49-.109q-.737-.158-1.079-.503-.339-.345-.339-.931 0-.733.473-1.128.473-.395 1.361-.395.404 0 .832.062.427.059.885.181"/><path d="m19.871-4.909h3.416v.957h-2.15v.914h2.022v.957h-2.022v2.081h-1.266v-4.909"/><path d="m26.622-.894h-1.979l-.312.894h-1.273l1.818-4.909h1.509l1.818 4.909h-1.273l-.309-.894m-1.664-.911h1.345l-.671-1.953-.674 1.953z"/><path d="m32.525-.27q-.349.181-.727.273-.378.092-.789.092-1.226 0-1.943-.684-.717-.687-.717-1.861 0-1.177.717-1.861.717-.687 1.943-.687.411 0 .789.092.378.092.727.273v1.016q-.352-.24-.694-.352-.342-.112-.72-.112-.677 0-1.065.434-.388.434-.388 1.197 0 .76.388 1.194.388.434 1.065.434.378 0 .72-.112.342-.112.694-.352v1.016"/><path d="m32.639-4.909h4.525v.957h-1.628v3.952h-1.266v-3.952h-1.631v-.957"/><path d="m37.27-4.909h1.266v4.909h-1.266v-4.909"/><path d="m41.588-4.081q-.579 0-.898.427-.319.427-.319 1.203 0 .773.319 1.2.319.427.898.427.582 0 .901-.427.319-.427.319-1.2 0-.776-.319-1.203-.319-.427-.901-.427m0-.917q1.184 0 1.855.677.671.677.671 1.871 0 1.19-.671 1.868-.671.677-1.855.677-1.18 0-1.855-.677-.671-.677-.671-1.868 0-1.194.671-1.871.674-.677 1.855-.677"/><path d="m44.7-4.909h1.414l1.785 3.367v-3.367h1.2v4.909h-1.414l-1.785-3.367v3.367h-1.2v-4.909"/><path d="m8.135 6.356q-.473.23-.983.345-.51.115-1.052.115-1.226 0-1.943-.684-.717-.687-.717-1.861 0-1.187.73-1.868.73-.681 1.999-.681.49 0 .937.092.45.092.848.273v1.016q-.411-.233-.819-.349-.404-.115-.812-.115-.756 0-1.167.424-.408.421-.408 1.207 0 .779.395 1.203.395.424 1.121.424.197 0 .365-.023.171-.026.306-.079v-.954h-.773v-.848h1.973v2.361"/><path d="m8.659 1.811h1.266v2.943q0 .608.197.871.201.26.651.26.454 0 .651-.26.201-.263.201-.871v-2.943h1.266v2.943q0 1.042-.523 1.552-.523.51-1.595.51-1.069 0-1.591-.51-.523-.51-.523-1.552v-2.943"/><path d="m16.54 5.826h-1.979l-.312.894h-1.273l1.818-4.909h1.509l1.818 4.909h-1.273l-.309-.894m-1.664-.911h1.345l-.671-1.953-.674 1.953"/><path d="m20.478 3.988q.398 0 .569-.148.174-.148.174-.487 0-.335-.174-.48-.171-.145-.569-.145h-.533v1.259h.533m-.533.875v1.858h-1.266v-4.909h1.933q.97 0 1.42.326.454.326.454 1.029 0 .487-.237.799-.233.312-.707.46.26.059.464.27.207.207.418.631l.687 1.394h-1.348l-.598-1.22q-.181-.368-.368-.503-.184-.135-.493-.135h-.358"/><path d="m26.467 5.826h-1.979l-.312.894h-1.273l1.818-4.909h1.509l1.818 4.909h-1.273l-.309-.894m-1.664-.911h1.345l-.671-1.953-.674 1.953"/><path d="m28.606 1.811h1.414l1.785 3.367v-3.367h1.2v4.909h-1.414l-1.785-3.367v3.367h-1.2v-4.909"/><path d="m33.25 1.811h4.525v.957h-1.628v3.952h-1.266v-3.952h-1.631v-.957"/><path d="m37.879 1.811h3.416v.957h-2.15v.914h2.022v.957h-2.022v1.125h2.223v.957h-3.489v-4.909"/><path d="m42.35 1.811h3.416v.957h-2.15v.914h2.022v.957h-2.022v1.125h2.223v.957h-3.489v-4.909"/></g></g></svg>